<svg width="24" height="24" viewBox="0 0 24 24" fill="none" xmlns="http://www.w3.org/2000/svg">
<path d="M7.4044 11.147L6.34504 9.02832C5.23572 6.80969 4.68106 5.70037 5.19072 5.19072C5.70037 4.68106 6.80969 5.23572 9.02832 6.34504L17.0546 10.3582C18.6157 11.1387 19.3962 11.529 19.3962 12.147C19.3962 12.7651 18.6157 13.1553 17.0546 13.9359L9.02831 17.949C6.80969 19.0583 5.70037 19.613 5.19072 19.1034C4.68106 18.5937 5.23572 17.4844 6.34504 15.2658L7.40439 13.147L13.5612 13.147C14.1135 13.147 14.5613 12.6993 14.5612 12.147C14.5612 11.5948 14.1135 11.147 13.5612 11.147L7.4044 11.147Z" fill="#6D7275"/>
</svg>
