<svg width="24" height="24" viewBox="0 0 24 24" fill="none" xmlns="http://www.w3.org/2000/svg">
<path d="M0 4.8C0 2.14903 2.14903 0 4.8 0H19.2C21.851 0 24 2.14903 24 4.8V19.2C24 21.851 21.851 24 19.2 24H4.8C2.14903 24 0 21.851 0 19.2V4.8Z" fill="#6466E9"/>
<path d="M8.4 17.4C8.4 16.0745 9.47452 15 10.8 15C12.1255 15 13.2 16.0745 13.2 17.4V19C13.2 20.3255 12.1255 21.4 10.8 21.4C9.47452 21.4 8.4 20.3255 8.4 19V17.4Z" fill="#F6FCFD"/>
<path d="M16.2 17.4C16.2 16.0745 17.2745 15 18.6 15C19.9255 15 21 16.0745 21 17.4V19C21 20.3255 19.9255 21.4 18.6 21.4C17.2745 21.4 16.2 20.3255 16.2 19V17.4Z" fill="#F6FCFD"/>
</svg>
